<svg width="17" height="20" viewBox="0 0 17 20" fill="none" xmlns="http://www.w3.org/2000/svg">
<path d="M2 2H10C11.0609 2 12.0783 2.42143 12.8284 3.17157C13.5786 3.92172 14 4.93913 14 6C14 7.06087 13.5786 8.07828 12.8284 8.82843C12.0783 9.57857 11.0609 10 10 10H2V2Z" stroke="#5D5D5D" stroke-width="4" stroke-linecap="round" stroke-linejoin="round"/>
<path d="M2 10H11C12.0609 10 13.0783 10.4214 13.8284 11.1716C14.5786 11.9217 15 12.9391 15 14C15 15.0609 14.5786 16.0783 13.8284 16.8284C13.0783 17.5786 12.0609 18 11 18H2V10Z" stroke="#5D5D5D" stroke-width="4" stroke-linecap="round" stroke-linejoin="round"/>
</svg>
