<svg width="87" height="146" viewBox="0 0 87 146" fill="none" xmlns="http://www.w3.org/2000/svg">
<g clip-path="url(#clip0_653_2163)">
<path d="M26.4677 0.378535C24.4643 1.15387 23.0512 3.17336 22.9081 5.49938C22.8008 7.14021 23.1943 8.3483 24.2139 9.50229C24.6074 9.95307 32.4602 16.0296 41.6724 22.9896C50.8846 29.9496 58.63 35.9359 58.8983 36.2605C59.1487 36.6031 59.5423 37.2703 59.7569 37.7751L60.1683 38.6587L60.2578 68.0494L60.3472 97.4402L60.7407 98.2876C61.2237 99.3695 62.4401 100.578 63.567 101.155L64.4614 101.587L73.3337 101.641C82.0987 101.696 82.224 101.677 83.2614 101.299C84.5851 100.794 86.0162 99.4597 86.5707 98.1975L87 97.2599V50.7395V4.21917L86.4991 3.26352C85.891 2.09149 84.8356 1.04569 83.7265 0.486722L82.8858 0.0720055L55.1597 0.0359432L27.4337 -0.000119111L26.4677 0.378535Z" fill="#78BDA6"/>
<path d="M3.96408 9.32358C3.44533 9.50389 2.71194 9.88254 2.3184 10.153C1.42401 10.7841 0.404411 12.2627 0.153982 13.3265C0.028768 13.9035 -0.0248953 28.0038 0.0108802 61.1992L0.0645436 108.26L0.547514 109.198C0.851606 109.757 1.56712 110.605 2.42573 111.38C6.52203 115.094 42.7448 145.603 43.4424 145.928C44.0506 146.216 44.6051 146.306 45.7678 146.306C47.0736 146.306 47.4135 146.234 48.2184 145.801C49.5958 145.08 50.3292 144.341 50.9553 143.115L51.4919 142.015V93.2225C51.4919 60.5681 51.4382 44.2138 51.313 43.7631C50.8122 41.996 51.0626 42.1943 29.5794 25.7319C18.3637 17.1311 8.758 9.88254 8.23926 9.61208C6.98711 8.96295 5.26989 8.85477 3.96408 9.32358Z" fill="#78BDA6"/>
</g>
<defs>
<clipPath id="clip0_653_2163">
<rect width="87" height="146" fill="white"/>
</clipPath>
</defs>
</svg>
