<svg width="127" height="31" viewBox="0 0 127 31" fill="none" xmlns="http://www.w3.org/2000/svg">
<path d="M5.65424 0.0800114C5.22625 0.244295 4.92436 0.672197 4.89379 1.16505C4.87086 1.51272 4.95493 1.7687 5.17275 2.01321C5.25682 2.10873 6.9344 3.39625 8.9024 4.87099C10.8704 6.34572 12.525 7.61414 12.5824 7.68291C12.6359 7.7555 12.7199 7.89686 12.7658 8.00384L12.8537 8.19105L12.8728 14.4185L12.8919 20.6461L12.976 20.8256C13.0791 21.0549 13.339 21.3108 13.5797 21.4331L13.7708 21.5248L15.6662 21.5362C17.5387 21.5477 17.5654 21.5439 17.7871 21.4636C18.0698 21.3567 18.3756 21.074 18.494 20.8065L18.5857 20.6078V10.7508V0.893789L18.4787 0.691301C18.3488 0.442965 18.1233 0.221373 17.8864 0.102936L17.7068 0.0150623L11.7837 0.00742149L5.86059 -0.000219345L5.65424 0.0800114Z" fill="white"/>
<path d="M0.846845 1.97526C0.736026 2.01346 0.57935 2.09369 0.49528 2.151C0.304212 2.28472 0.0863943 2.59801 0.0328952 2.82342C0.0061457 2.94568 -0.00531838 5.93335 0.00232434 12.967L0.0137884 22.9386L0.116965 23.1373C0.181928 23.2557 0.334783 23.4353 0.518208 23.5996C1.3933 24.3866 9.13156 30.851 9.28059 30.9198C9.41052 30.9809 9.52898 31 9.77737 31C10.0563 31 10.1289 30.9847 10.3009 30.893C10.5951 30.7402 10.7518 30.5836 10.8856 30.3238L11.0002 30.0907V19.7523C11.0002 12.8333 10.9887 9.36803 10.962 9.27251C10.855 8.8981 10.9085 8.94013 6.31904 5.45196C3.92304 3.62956 1.87097 2.09369 1.76015 2.03639C1.49266 1.89885 1.1258 1.87592 0.846845 1.97526Z" fill="white"/>
<path d="M31.5956 6.00519C30.5671 6.13734 29.3215 6.52435 28.2836 7.03407C26.6039 7.84584 25.4716 9.1107 25.2262 10.4511C25.1602 10.7909 25.1319 12.6882 25.1508 15.6427C25.1791 20.8814 25.1508 20.6738 25.9056 21.1646C26.6605 21.6649 27.7834 21.4195 28.2175 20.6643C28.4345 20.2962 28.4345 20.2679 28.4345 15.9919C28.4345 10.9985 28.4345 10.9797 29.1706 10.3284C29.6612 9.88472 30.6615 9.39388 31.4541 9.19565C32.3128 8.97855 34.0113 9.02575 34.8511 9.29005C36.0872 9.66762 36.8893 10.1962 37.3234 10.8853L37.5404 11.2345L37.5876 15.8126C37.6442 20.9381 37.6159 20.7776 38.333 21.174C39.0407 21.5611 39.7579 21.5139 40.3146 21.0419C40.8997 20.5511 40.8997 20.5227 40.8714 15.1046L40.843 10.1962L40.5317 9.56378C39.956 8.38388 38.5218 7.26061 36.7666 6.59986C35.3135 6.05239 33.1149 5.79753 31.5956 6.00519Z" fill="white"/>
<path d="M45.7687 7.26084C45.2025 7.46851 44.7873 7.84608 44.5231 8.40299C44.2967 8.85607 44.2683 9.0071 44.2967 9.65841C44.3438 10.5929 44.6647 11.1781 45.3629 11.6123C45.7781 11.8672 45.9102 11.8955 46.5519 11.8955C47.1935 11.8955 47.3257 11.8672 47.7408 11.6123C48.4297 11.1876 48.7599 10.5929 48.8071 9.7056C48.826 9.20533 48.7883 8.88439 48.6845 8.60121C48.5052 8.13869 48.0051 7.58178 47.5616 7.35523C47.1558 7.13813 46.2122 7.09094 45.7687 7.26084Z" fill="white"/>
<path d="M45.5521 16.9363C45.0897 17.1534 44.5424 17.767 44.4009 18.2578C44.2404 18.7675 44.2593 19.7209 44.4292 20.1362C44.5141 20.325 44.7594 20.6648 44.9765 20.8914C45.8635 21.7975 47.2977 21.7598 48.2225 20.797C48.6565 20.3533 48.817 19.8908 48.817 19.1168C48.817 18.0785 48.3074 17.2478 47.4299 16.8797C46.9864 16.7003 46.0144 16.7287 45.5521 16.9363Z" fill="white"/>
<path d="M56.0757 6.70631C55.2171 6.89509 54.6037 7.26323 53.8677 8.05612C52.0465 10.0006 51.3671 13.4459 52.1692 16.5986C52.6599 18.477 53.8488 20.1478 55.1416 20.7613C56.0097 21.1767 56.5192 21.205 61.8035 21.1767C66.5498 21.1483 66.7669 21.1389 67.0688 20.9596C67.5784 20.6575 67.8709 20.1383 67.8709 19.5626C67.8709 18.8263 67.4935 18.2316 66.8707 17.9956C66.6914 17.9296 65.0495 17.8918 62.0488 17.8918C56.8306 17.8918 56.7834 17.8824 56.104 17.1839C55.2737 16.3343 54.8679 15.2016 54.8868 13.7857C54.9151 12.115 55.6605 10.6519 56.774 10.095C57.1043 9.92509 57.4628 9.91565 61.9922 9.86845C67.2953 9.82126 67.2292 9.82126 67.5878 9.26434C67.8426 8.88677 67.9464 8.25434 67.8332 7.82958C67.701 7.35762 67.1349 6.8007 66.6631 6.66855C66.078 6.50809 56.8401 6.5364 56.0757 6.70631Z" fill="white"/>
<path d="M71.0036 6.69729C70.5035 6.88607 69.9656 7.4713 69.8807 7.91495C69.758 8.55682 70.1449 9.37803 70.7111 9.7084C70.8337 9.77448 71.4754 9.84055 72.3718 9.86887C74.1269 9.92551 74.4383 10.0388 75.3631 10.9733C75.9387 11.5679 77.0049 13.0688 77.3352 13.7578L77.4956 14.1071L77.0993 14.7678C76.3161 16.0799 75.2593 17.2409 74.4949 17.6374C74.2873 17.7412 73.8061 17.7884 72.7493 17.8167C71.6358 17.845 71.2206 17.8922 71.0036 18.0055C70.1354 18.4775 69.8241 19.478 70.2864 20.3181C70.6827 21.0166 70.9658 21.1016 72.9002 21.1016C74.778 21.0921 75.1177 21.026 76.0991 20.4314C76.7879 20.0255 77.8542 19.0344 78.5619 18.1565C78.8639 17.779 79.1375 17.4297 79.1753 17.3919C79.2036 17.3447 79.4583 17.5996 79.732 17.9583C80.8738 19.4119 82.2703 20.5446 83.3838 20.9222C83.9028 21.0921 84.1481 21.111 85.6956 21.0827C87.3281 21.0544 87.4413 21.0449 87.7338 20.8373C88.4038 20.3559 88.602 19.4119 88.1773 18.6851C87.7527 17.9677 87.4885 17.8639 85.6862 17.8073C84.2802 17.7601 84.082 17.7318 83.7895 17.543C83.0724 17.0804 82.242 16.1365 81.4871 14.9283L80.9587 14.0882L81.2984 13.4652C82.1005 11.9927 83.3932 10.5013 84.2236 10.1049C84.5255 9.95382 84.8841 9.91607 86.1014 9.86887C87.4979 9.82168 87.6395 9.8028 87.8942 9.60457C88.8473 8.85887 88.819 7.52794 87.8282 6.87663C87.4413 6.61233 87.4224 6.61233 85.8749 6.62177C84.0915 6.62177 83.648 6.71617 82.6666 7.29196C81.9023 7.7356 80.402 9.17037 79.7792 10.0482C79.5244 10.4069 79.2791 10.709 79.2413 10.709C79.213 10.7184 78.9771 10.4352 78.7318 10.0765C78.1467 9.25532 76.8162 7.93383 76.0991 7.46187C75.0989 6.80112 74.5138 6.65009 72.8436 6.6029C71.7018 6.56514 71.2961 6.59346 71.0036 6.69729Z" fill="white"/>
<path d="M91.782 6.70607C91.0743 6.95149 90.678 7.49897 90.678 8.21635C90.678 8.80158 90.9139 9.26411 91.3668 9.59448L91.7442 9.86822H94.3769H97.0002V13.8799V17.8916H94.443C91.5555 17.8916 91.4328 17.9104 90.9516 18.5806C90.4892 19.2131 90.593 20.157 91.1686 20.695C91.7159 21.2047 91.5555 21.1953 98.7175 21.1953C104.964 21.1953 105.37 21.1764 105.729 21.016C105.936 20.9216 106.2 20.7422 106.314 20.6195C106.946 19.921 106.814 18.7128 106.04 18.1559C105.738 17.9388 105.681 17.9388 103.068 17.9104L100.397 17.8821V13.8799V9.86822H102.945C105.804 9.86822 105.946 9.8399 106.399 9.24523C106.634 8.93373 106.672 8.81102 106.672 8.25411C106.672 7.75383 106.625 7.5556 106.474 7.35738C106.2 6.97981 105.861 6.75327 105.436 6.65888C105.238 6.61168 102.162 6.57392 98.6043 6.57392C93.3767 6.57392 92.0745 6.5928 91.782 6.70607Z" fill="white"/>
<path d="M109.994 6.6776C109.258 6.87582 108.701 7.76311 108.833 8.49937C108.918 8.9147 109.248 9.38666 109.635 9.65096C109.956 9.86806 109.994 9.86806 112.957 9.86806H115.957L115.986 15.1257C116.014 20.3645 116.014 20.3928 116.221 20.7232C116.788 21.6388 118.222 21.7426 118.92 20.9214C119.052 20.7609 119.213 20.4683 119.269 20.2701C119.326 20.053 119.364 18.0613 119.364 14.8897V9.86806H122.374C125.337 9.86806 125.374 9.86806 125.695 9.65096C126.214 9.3017 126.441 8.88638 126.441 8.27283C126.441 7.5932 126.158 7.08348 125.639 6.80975C125.261 6.61152 125.167 6.61152 117.807 6.59264C112.947 6.5832 110.23 6.61152 109.994 6.6776Z" fill="white"/>
<path d="M58.0761 12.2659C57.727 12.4264 57.3212 12.8511 57.1891 13.2004C56.8777 14.0216 57.3307 15.0316 58.1516 15.3337C58.3215 15.3997 59.8312 15.4375 62.4639 15.4375C65.0966 15.4375 66.6064 15.3997 66.7762 15.3337C67.3801 15.1071 67.8425 14.4369 67.8425 13.7856C67.8425 13.1343 67.3801 12.4641 66.7762 12.2376C66.3516 12.0771 58.4441 12.1054 58.0761 12.2659Z" fill="white"/>
</svg>
