<svg width="16" height="16" viewBox="0 0 16 16" fill="none" xmlns="http://www.w3.org/2000/svg">
<path d="M13.4444 1H2.55556C1.69645 1 1 1.69737 1 2.55763V13.461C1 14.3213 1.69645 15.0187 2.55556 15.0187H13.4444C14.3036 15.0187 15 14.3213 15 13.461V2.55763C15 1.69737 14.3036 1 13.4444 1Z" stroke="#78BDA6" stroke-width="1.5" stroke-linecap="round" stroke-linejoin="round"/>
<path d="M5.27799 6.45171C5.92233 6.45171 6.44466 5.92868 6.44466 5.28349C6.44466 4.6383 5.92233 4.11526 5.27799 4.11526C4.63366 4.11526 4.11133 4.6383 4.11133 5.28349C4.11133 5.92868 4.63366 6.45171 5.27799 6.45171Z" stroke="#78BDA6" stroke-width="1.5" stroke-linecap="round" stroke-linejoin="round"/>
<path d="M15.0001 10.3458L11.1112 6.45169L2.55566 15.0187" stroke="#78BDA6" stroke-width="1.5" stroke-linecap="round" stroke-linejoin="round"/>
</svg>
