<svg width="22" height="23" viewBox="0 0 22 23" fill="none" xmlns="http://www.w3.org/2000/svg">
<path d="M16 1.66211H6C3.23858 1.66211 1 3.90069 1 6.66211V16.6621C1 19.4235 3.23858 21.6621 6 21.6621H16C18.7614 21.6621 21 19.4235 21 16.6621V6.66211C21 3.90069 18.7614 1.66211 16 1.66211Z" stroke="white" stroke-width="2" stroke-linecap="round" stroke-linejoin="round"/>
<path d="M14.9997 11.0324C15.1231 11.8647 14.981 12.7146 14.5935 13.4614C14.206 14.2082 13.5929 14.8138 12.8413 15.1921C12.0898 15.5703 11.2382 15.702 10.4075 15.5683C9.57683 15.4347 8.80947 15.0425 8.21455 14.4476C7.61962 13.8526 7.22744 13.0853 7.09377 12.2546C6.96011 11.424 7.09177 10.5723 7.47003 9.82078C7.84829 9.06926 8.45389 8.45615 9.20069 8.06865C9.94749 7.68115 10.7975 7.539 11.6297 7.66241C12.4786 7.7883 13.2646 8.18387 13.8714 8.79072C14.4782 9.39756 14.8738 10.1835 14.9997 11.0324Z" stroke="white" stroke-width="2" stroke-linecap="round" stroke-linejoin="round"/>
<path d="M16.5 6.16211H16.51" stroke="white" stroke-width="2" stroke-linecap="round" stroke-linejoin="round"/>
</svg>
